Coordinates
version=1
nRows=48
nColumns=11
inDegrees=yes

Units are S.I. units (second, meters, Newtons, ...)
If the header above contains a line with 'inDegrees', this indicates whether rotational values are in degrees (yes) or radians (no).

endheader
time	pelvis_tilt	pelvis_tx	pelvis_ty	hip_flexion_l	hip_flexion_r	knee_angle_l	knee_angle_r	ankle_angle_l	ankle_angle_r	lumbar
     15.00000000	    -22.98098706	      0.21530009	      0.90215481	     53.68698138	     53.68698138	    -40.44570070	    -40.44570070	      7.56678472	      7.56678472	    -20.65541808
     15.01000000	    -22.62339464	      0.21890041	      0.90580306	     52.56550352	     52.56550352	    -39.56555024	    -39.56555024	      7.42629788	      7.42629788	    -20.22865472
     15.02000000	    -22.02664601	      0.22267494	      0.90982246	     51.21608699	     51.21608699	    -38.76626706	    -38.76626706	      7.19338240	      7.19338240	    -20.09537016
     15.03000000	    -21.93452934	      0.22613642	      0.91271059	     50.44249797	     50.44249797	    -37.99392746	    -37.99392746	      7.17548590	      7.17548590	    -19.29157205
     15.04000000	    -21.27298843	      0.23004488	      0.91682722	     48.98237393	     48.98237393	    -37.11798564	    -37.11798564	      6.92388252	      6.92388252	    -19.22175637
     15.05000000	    -20.87754552	      0.23376587	      0.92029303	     47.84279753	     47.84279753	    -36.29032095	    -36.29032095	      6.78272835	      6.78272835	    -18.79784441
     15.06000000	    -20.47632876	      0.23749834	      0.92371421	     46.69701503	     46.69701503	    -35.45979324	    -35.45979324	      6.63861606	      6.63861606	    -18.37600999
     15.07000000	    -20.31654065	      0.24105672	      0.92651650	     45.85652342	     45.85652342	    -34.70040211	    -34.70040211	      6.59524782	      6.59524782	    -17.63874721
     15.08000000	    -19.67056308	      0.24496685	      0.93036473	     44.40927409	     44.40927409	    -33.80457508	    -33.80457508	      6.34780992	      6.34780992	    -17.52439830
     15.09000000	    -19.33415556	      0.24869500	      0.93345617	     43.33094594	     43.33094594	    -32.96331030	    -32.96331030	      6.23095031	      6.23095031	    -16.99288862
     15.10000000	    -18.87828637	      0.25237981	      0.93668991	     42.15635471	     42.15635471	    -32.17186270	    -32.17186270	      6.06279101	      6.06279101	    -16.65220474
     15.11000000	    -18.49172762	      0.25604920	      0.93971092	     41.05213895	     41.05213895	    -31.37017078	    -31.37017078	      5.92463107	      5.92463107	    -16.20820438
     15.12000000	    -18.11298734	      0.25969059	      0.94262602	     39.96424951	     39.96424951	    -30.57871564	    -30.57871564	      5.79130045	      5.79130045	    -15.75686425
     15.13000000	    -17.73525356	      0.26329243	      0.94546007	     38.89243164	     38.89243164	    -29.80684861	    -29.80684861	      5.65819049	      5.65819049	    -15.31313052
     15.14000000	    -17.37362784	      0.26686004	      0.94815675	     37.84398453	     37.84398453	    -29.04115447	    -29.04115447	      5.53484295	      5.53484295	    -14.85607956
     15.15000000	    -17.00533401	      0.27038228	      0.95079368	     36.79921592	     36.79921592	    -28.29008153	    -28.29008153	      5.40777389	      5.40777389	    -14.41660223
     15.16000000	    -16.65106654	      0.27386574	      0.95330775	     35.77620834	     35.77620834	    -27.54349290	    -27.54349290	      5.28886186	      5.28886186	    -13.97401743
     15.17000000	    -16.29410929	      0.27729569	      0.95574040	     34.75885954	     34.75885954	    -26.80786802	    -26.80786802	      5.17082265	      5.17082265	    -13.54430455
     15.18000000	    -16.18388165	      0.28049763	      0.95756179	     34.06789013	     34.06789013	    -26.16143637	    -26.16143637	      5.15802780	      5.15802780	    -12.82133135
     15.19000000	    -15.59655539	      0.28397116	      0.96031334	     32.77635857	     32.77635857	    -25.36815159	    -25.36815159	      4.94797989	      4.94797989	    -12.71945641
     15.20000000	    -15.25312503	      0.28721757	      0.96245591	     31.80715764	     31.80715764	    -24.66693022	    -24.66693022	      4.84018986	      4.84018986	    -12.32378208
     15.21000000	    -14.91548558	      0.29039671	      0.96450352	     30.85603258	     30.85603258	    -23.97796885	    -23.97796885	      4.73740704	      4.73740704	    -11.93820103
     15.22000000	    -14.58265496	      0.29351022	      0.96645381	     29.92270418	     29.92270418	    -23.30332417	    -23.30332417	      4.63927365	      4.63927365	    -11.56339963
     15.23000000	    -14.26305299	      0.29654293	      0.96827846	     29.02323876	     29.02323876	    -22.65157340	    -22.65157340	      4.55147810	      4.55147810	    -11.19884351
     15.24000000	    -13.94699362	      0.29952319	      0.97002132	     28.13407951	     28.13407951	    -22.01021414	    -22.01021414	      4.46928797	      4.46928797	    -10.83591384
     15.25000000	    -13.63354583	      0.30243898	      0.97166715	     27.26430230	     27.26430230	    -21.38744255	    -21.38744255	      4.39061196	      4.39061196	    -10.48813278
     15.26000000	    -13.56384202	      0.30521004	      0.97272482	     26.70129307	     26.70129307	    -20.84191856	    -20.84191856	      4.40500362	      4.40500362	     -9.83491662
     15.27000000	    -13.02276468	      0.30806589	      0.97467659	     25.58260923	     25.58260923	    -20.19223057	    -20.19223057	      4.25772313	      4.25772313	     -9.82730773
     15.28000000	    -12.72392582	      0.31079409	      0.97606003	     24.76822669	     24.76822669	    -19.62027617	    -19.62027617	      4.19477925	      4.19477925	     -9.51764866
     15.29000000	    -12.43093197	      0.31340742	      0.97735414	     23.98500774	     23.98500774	    -19.08078271	    -19.08078271	      4.14806586	      4.14806586	     -9.22383946
     15.30000000	    -12.11186010	      0.31602303	      0.97864997	     23.15842854	     23.15842854	    -18.51429672	    -18.51429672	      4.08545054	      4.08545054	     -8.97656236
     15.31000000	    -11.81263514	      0.31849876	      0.97983880	     22.38528638	     22.38528638	    -17.98722447	    -17.98722447	      4.03861231	      4.03861231	     -8.73802241
     15.32000000	    -11.73410451	      0.32081229	      0.98052548	     21.87908360	     21.87908360	    -17.50621514	    -17.50621514	      4.06017440	      4.06017440	     -8.23357224
     15.33000000	    -11.24469359	      0.32322878	      0.98196425	     20.87707130	     20.87707130	    -16.93001524	    -16.93001524	      3.95399846	      3.95399846	     -8.27247835
     15.34000000	    -11.23290625	      0.32522297	      0.98242480	     20.49430663	     20.49430663	    -16.50252108	    -16.50252108	      3.98639208	      3.98639208	     -7.76169719
     15.35000000	    -10.75343926	      0.32749981	      0.98373644	     19.49998285	     19.49998285	    -15.90947145	    -15.90947145	      3.87095115	      3.87095115	     -7.82354363
     15.36000000	    -10.53673915	      0.32948217	      0.98450285	     18.85652025	     18.85652025	    -15.40792265	    -15.40792265	      3.82188706	      3.82188706	     -7.60111654
     15.37000000	    -10.33463939	      0.33135635	      0.98519921	     18.24182982	     18.24182982	    -14.91636561	    -14.91636561	      3.77281737	      3.77281737	     -7.38508336
     15.38000000	    -10.32841430	      0.33307131	      0.98547707	     17.87687111	     17.87687111	    -14.47852466	    -14.47852466	      3.79917083	      3.79917083	     -6.93815930
     15.39000000	     -9.96880417	      0.33491767	      0.98639673	     17.07610678	     17.07610678	    -13.95598215	    -13.95598215	      3.67684678	      3.67684678	     -6.95847083
     15.40000000	    -10.00141735	      0.33645318	      0.98653718	     16.78804994	     16.78804994	    -13.56971571	    -13.56971571	      3.71139614	      3.71139614	     -6.51400674
     15.41000000	     -9.63906443	      0.33822073	      0.98741168	     15.97699777	     15.97699777	    -13.01190320	    -13.01190320	      3.58209233	      3.58209233	     -6.55609896
     15.42000000	     -9.47027478	      0.33980963	      0.98789354	     15.42956223	     15.42956223	    -12.54467434	    -12.54467434	      3.52107138	      3.52107138	     -6.38404277
     15.43000000	     -9.46494586	      0.34128279	      0.98804746	     15.08888468	     15.08888468	    -12.11815374	    -12.11815374	      3.53495140	      3.53495140	     -6.01532956
     15.44000000	     -9.14819362	      0.34290515	      0.98876481	     14.35358991	     14.35358991	    -11.60251889	    -11.60251889	      3.40390862	      3.40390862	     -6.03690599
     15.45000000	     -9.17545218	      0.34428489	      0.98881871	     14.06547591	     14.06547591	    -11.20404044	    -11.20404044	      3.43071601	      3.43071601	     -5.65128608
     15.46000000	     -8.81102408	      0.34582849	      0.98960350	     13.27562000	     13.27562000	    -10.66542082	    -10.66542082	      3.27924178	      3.27924178	     -5.76222016
     15.47000000	     -8.64081539	      0.34721437	      0.98999290	     12.74612656	     12.74612656	    -10.20927321	    -10.20927321	      3.21574866	      3.21574866	     -5.64630553
